<svg width="40" height="40" viewBox="0 0 40 40" fill="none" xmlns="http://www.w3.org/2000/svg">
<g clip-path="url(#clip0)">
<path d="M39.2001 26.0215L1.54382 38.5608C1.18562 38.6809 0.793121 38.6203 0.487495 38.4005C0.180779 38.1808 -3.8147e-06 37.826 -3.8147e-06 37.4495V30.9573C-3.8147e-06 28.4178 1.61476 26.1805 4.01687 25.3909L23.5359 18.8769C23.7762 18.7957 24.0372 18.7957 24.2775 18.8769L39.1989 23.7991L39.2001 26.0215Z" fill="#F1F1F1"/>
<path d="M0 9.04306V2.55079C0 2.17431 0.180782 1.82064 0.486408 1.59978C0.791954 1.38001 1.18453 1.31939 1.54274 1.43845L39.199 13.9308C39.6773 14.091 40 14.5384 40 15.0431V24.9102C40 25.2867 39.8192 25.6404 39.5136 25.8613C39.208 26.081 38.8144 26.1416 38.4573 26.0215L4.01344 14.6083C1.61359 13.8187 0 11.5813 0 9.04306Z" fill="#2B2A2A"/>
<path d="M40 24.9103V19.9931H20.1909H20.1906L38.4573 26.0214C38.8143 26.1416 39.208 26.081 39.5136 25.8612C39.8192 25.6404 40 25.2868 40 24.9103V24.9103Z" fill="#3C3C3C"/>
</g>
<defs>
<clipPath id="clip0">
<rect width="40" height="40" fill="white" transform="translate(40) rotate(90)"/>
</clipPath>
</defs>
</svg>
