<svg width="460" height="435" viewBox="0 0 460 435" fill="none" xmlns="http://www.w3.org/2000/svg">
<path fill-rule="evenodd" clip-rule="evenodd" d="M115.98 261.188C118.322 259.233 123.112 252.235 125.621 250.618C131.2 247.022 156.057 239.952 156.866 239.534C158.097 238.899 166.093 236.676 170.752 235.272C181.693 231.974 220.898 210.673 231.232 205.212C232.551 209.464 243.442 228.232 241.574 230.156C235.423 236.489 224.397 244.374 217.272 248.912C211.509 252.583 205.405 255.62 199.243 258.1C192.247 260.916 187.445 263.936 180.473 266.816C173.613 269.65 181.811 278.514 185.334 280.346C189.285 282.4 195.406 283.443 199.443 285.224C192.335 298.756 186.365 315.18 185.17 331.39C184.883 335.29 182.455 338.867 178.506 337.699C176.468 337.096 157.665 334.029 154.599 333.173C134.13 327.455 97.3861 297.516 106.848 266.816C109.016 268.042 113.965 262.87 115.98 261.188Z" fill="#B1A7B1"/>
<path fill-rule="evenodd" clip-rule="evenodd" d="M127.431 98.3051C128.96 98.1472 132.914 94.4061 130.839 92.5137C128.746 90.6047 127.242 97.0026 127.431 98.3051ZM47.7783 112.653C48.1781 112.567 48.0036 109.888 47.3745 109.546C45.388 108.466 45.2205 112.525 45.1718 113.611C45.1116 114.982 44.9712 118.843 47.3866 117.785C48.7575 117.184 47.9067 113.681 47.7783 112.653ZM165.038 125.169C164.985 127.56 168.929 132.158 170.399 129.4C171.636 127.083 165.14 120.408 165.038 125.169ZM25.5834 71.2368C26.7262 74.8077 32.3781 69.9416 32.5883 67.3224C33.0192 61.9586 25.5242 67.6683 25.5834 71.2368ZM72.7367 86.6314C75.3688 86.3666 78.8321 82.2679 81.3704 80.7368C83.088 79.7009 87.7617 78.4659 88.2699 76.1133C88.7123 74.0692 80.7825 78.4444 80.1053 78.8333C76.9946 80.6182 74.19 82.6531 72.7367 86.6314ZM270.33 58.3687C272.428 56.3817 274.978 55.1 277.668 55.1842C279.01 55.226 281.812 56.2551 281.917 53.4104C282.089 48.7851 270.228 54.426 268.375 55.3335C269.027 56.346 269.679 57.3574 270.33 58.3687ZM139.454 238.628C137.915 235.497 135.147 233.687 133.065 231.017C133.828 235.402 132.108 239.302 130.927 243.305C133.77 241.746 136.612 240.187 139.454 238.628ZM406.729 305.36C407.577 301.883 408.427 298.426 409.418 295.003C410.528 291.169 411.08 290.837 408.424 288.157C406.219 293.259 404.015 298.363 401.81 303.467C403.38 304.284 405.017 305.079 406.729 305.36ZM178.582 53.6777C175.663 49.6484 161.985 49.3953 163.677 58.2882C164.268 61.3934 167.631 58.0946 169.738 57.3709C171.828 56.652 177.749 56.5568 178.582 53.6777ZM178.08 110.725C177.727 109.697 177.02 105.985 175.972 105.693C174.951 105.408 170.92 109.301 170.163 109.895C166.384 112.86 162.701 116.051 159.018 119.195C160.428 119.195 161.708 118.58 163.11 118.567C164.775 118.549 165.97 119.387 167.594 118.909C171.082 117.883 175.132 113.148 178.08 110.725ZM181.861 18.7826C182.189 16.9395 199.29 22.4721 201.346 23.4852C202.465 24.0362 208.243 27.7146 207.002 22.1707C206.295 19.0132 199.619 16.6062 197.479 15.7408C192.04 13.5419 186.305 11.9778 180.514 12.3405C179.389 12.4104 170.872 13.0124 174.428 17.2055C175.654 18.6495 180.047 18.1944 181.861 18.7826ZM185.605 272.006C188.791 273.926 192.044 275.394 195.375 276.896C196.854 277.563 199.159 279.309 200.791 278.871C202.128 278.511 202.556 276.017 203.258 274.349C205.826 268.243 208.892 263.317 212.693 258.283C210.928 256.706 201.968 263.661 199.75 264.688C197.531 265.716 195.437 266.751 193.264 267.979C191.219 269.135 187.183 270.169 185.605 272.006ZM242.021 219.958C246.664 217.384 251.066 212.82 254.874 208.734C259.247 204.042 263.167 199.125 266.368 193.053C264.442 193.174 260.189 200.763 260.141 192.5C260.117 188.286 264.833 184.134 266.297 180.225C262.656 177.707 259.318 192.751 255.141 189.105C251.116 185.591 257.466 173.51 258.69 169.698C256.329 167.774 242.879 189.307 240.932 192.062C239.715 193.786 236.835 196.082 236.148 198.094C235.739 199.292 235.68 203.092 235.878 204.194C236.29 206.497 238.376 209.256 239.305 211.401C240.481 214.116 241.505 216.938 242.021 219.958ZM433.993 297.589C429.977 290.647 434.125 287.619 437.39 281.857C440.002 277.248 442.404 272.167 444.06 267.02C448.2 254.146 451.935 242.178 453.98 228.559C451.166 230.133 449.407 236.12 448 239.275C446.106 243.517 444.441 247.969 442.338 252.079C438.401 259.769 434.536 267.972 429.528 274.638C427.259 277.659 425.338 281.057 422.72 283.779C421.524 285.023 419.236 286.043 418.355 287.598C417.523 289.066 418.454 290.004 418.138 291.758C417.814 293.557 416.328 295.475 415.69 297.207C414.853 299.482 414.073 301.763 413.138 303.988C412.119 306.414 411.841 307.683 411.566 310.054C411.265 312.646 412.186 312.916 410.338 315.304C413.688 317.114 417.038 318.923 420.387 320.731C421.517 321.343 422.648 321.953 423.779 322.564C424.017 322.016 424.255 321.469 424.493 320.922C425.414 319.827 426.261 317.127 426.787 315.68C428.988 309.644 431.474 303.584 433.993 297.589ZM110.52 268.446C101.009 299.117 134.432 324.941 155.007 330.653C157.857 331.444 160.638 332.479 163.475 333.329C166.568 334.254 169.314 334.07 172.402 334.458C174.858 334.766 176.029 337.09 178.343 337.731C182.211 338.801 181.974 335.241 182.251 331.426C183.426 315.252 190.165 299.647 197.298 286.151C194.04 284.723 190.811 283.165 187.595 281.602C184.842 280.263 180.628 276.502 177.669 276.303C175.481 276.157 172.146 278.445 170.021 279.45C166.481 281.123 162.931 282.548 159.242 283.689C152.791 285.684 145.612 288.403 138.937 288.609C137.012 288.669 131.733 289.767 130.349 288.31C127.708 285.532 131.373 283.217 133.584 282.225C146.759 276.316 160.748 273.804 173.961 267.745C180.76 264.627 187.489 261.145 194.331 258.073C200.229 255.426 206.406 253.082 212.105 249.825C219.632 245.525 227.191 240.169 233.709 233.858C235.014 232.595 237.747 230.72 238.641 228.89C239.429 227.279 239.331 228.886 239.167 226.932C239.05 225.53 237.648 223.628 237.072 222.303C234.924 217.361 232.982 212.285 231.351 207.055C220.954 212.517 211.062 219.951 200.818 225.788C190.508 231.664 178.877 235.809 167.847 239.114C163.152 240.521 157.755 240.966 153.449 243.746C151.62 244.927 149.812 246.294 147.852 246.977C147.273 248.336 146.704 248.603 146.143 247.776C145.791 247.293 145.337 247.089 144.779 247.164C143.58 247.412 142.358 248.105 141.237 248.638C135.564 251.332 130.132 254.705 124.746 258.147C122.194 259.777 119.575 261.383 117.132 263.245C115.823 264.243 114.649 265.25 113.578 266.621C112.293 268.264 112.599 269.615 110.52 268.446ZM324.548 86.3426C326.952 86.3905 329.142 84.7955 331.649 84.8846C335.591 85.0241 338.711 88.7671 340.998 92.3767C345.525 99.5186 344.371 108.134 342.097 116.127C341.009 119.947 339.515 123.614 337.649 126.957C335.996 129.918 333.042 132.717 331.889 136.013C329.987 141.449 333.824 139.137 336.174 137.977C339.128 136.516 341.897 134.7 344.404 132.254C355.579 121.353 364.08 106.201 366.928 88.8002C368.317 80.3104 368.21 70.3852 363.381 63.456C358.967 57.1196 351.346 55.0496 344.832 56.2244C337.791 57.495 331.409 61.1482 325.675 65.8503C324.01 67.2167 322.485 68.7085 320.921 70.2365C318.869 72.2413 317.64 72.2936 318.154 75.4357C318.535 77.7716 319.573 80.1924 320.242 82.4337C321.496 86.632 321.039 87.7183 324.548 86.3426ZM332.211 158.72L331.725 159.738C335.078 159.934 338.201 156.311 341.057 154.543C344.768 152.244 348.064 149.109 351.316 145.943C357.05 140.359 362.86 134.065 367.129 126.734C376.699 110.301 385.391 89.4656 382.779 68.6299C379.965 46.1739 363.929 37.5297 346.842 40.5025C339.141 41.842 332.266 46.0529 325.375 50.3279C321.901 52.4827 318.969 55.2788 315.787 57.9847C314.136 59.3898 312.629 59.5723 312.521 62.0287C312.439 63.8799 315.053 68.0665 315.759 69.7438C324.412 58.9327 333.736 49.9888 346.804 49.4358C362.349 48.7784 371.542 66.8321 371.474 84.1203C371.407 101.075 365.436 117.384 355.919 129.569C351.594 135.106 347.47 139.55 342.158 143.591C339.511 145.606 337.558 147.415 334.598 148.752C332.504 149.699 332.722 149.2 332.188 151.574C331.734 153.589 332.197 156.628 332.211 158.72ZM247.74 389.068C247.538 392.123 247.031 395.131 246.467 398.111C246.264 399.181 245.123 402.56 245.323 403.763C245.654 405.752 245.214 404.473 246.636 405.51C248.12 406.594 249.848 406.528 251.473 406.857C252.475 407.06 256.15 409.178 256.768 408.844C257.848 408.259 257.814 406.197 259 405.38C260.615 404.266 262.995 405.22 264.519 406.092C268.592 408.419 271.391 413.236 275.332 415.874C282.332 420.556 290.638 423.148 298.447 424.218C302.678 424.797 307.007 425.814 311.185 424.6C314.477 423.643 318.756 423.731 320.545 419.405C304.643 414.049 280.37 407.494 274.083 385.142C270.665 388.937 264.953 386.893 260.822 386.369C256.278 385.793 252.217 385.927 248.061 383.39C247.757 385.384 247.664 387.039 247.74 389.068ZM106.941 250.631C114.427 251.184 121.524 246.845 126.13 239.525C127.265 237.721 128.427 235.881 129.108 233.745C129.256 233.204 129.403 232.662 129.551 232.12C130.265 230.626 129.952 229.92 128.612 230.004C127.857 228.736 125.943 228.31 126.488 226.011C126.898 224.278 128.411 224.249 129.727 223.704C129.071 222.356 128.68 221.679 127.742 220.48C125.306 223.165 120.884 228.434 119.172 222.267C118.349 219.306 119.797 216.476 119.438 213.62C119.291 212.439 118.068 209.421 117.359 208.715C113.585 204.952 108.15 206.51 104.146 208.724C101.387 210.251 100.793 210.968 100.343 214.467C99.8858 218.026 99.4614 221.583 98.9542 225.132C100.61 224.075 100.912 221.792 101.992 220.147C102.396 221.049 102.801 221.953 103.207 222.855C103.776 222.463 104.309 222.483 104.802 222.917C105.601 224.422 105.099 226.653 104.853 228.231C107.518 227.926 108.644 231.567 105.958 233.042C103.175 234.569 101.92 230.405 101.826 227.708C100.787 229.227 99.7207 228.414 98.9969 229.194C98.274 229.974 97.9891 231.601 97.7317 233.382C97.3089 236.308 96.2268 240.53 97.2281 243.466C98.7144 247.827 103.453 250.096 106.941 250.631ZM323.861 110.578C321.385 114.797 317.161 120.32 316.278 125.417C319.006 123.456 324.775 114.021 326.261 121.537C327.114 125.851 322.739 130.992 321.664 135.17C325.966 133.436 329.031 128.006 331.715 123.815C335.139 118.471 338.633 111.428 339.507 104.633C340.214 99.1345 337.1 94.0098 332.473 93.471C330.109 93.1957 327.641 93.6553 325.358 94.3268C324.316 94.6322 322.763 95.0119 321.834 95.6951C320.667 96.5534 320.507 98.5625 319.408 96.8914C317.947 100.263 316.487 103.634 315.027 107.004C316.48 106.358 319.446 103.617 321.034 103.9C323.354 104.315 323.83 108.441 323.861 110.578ZM91.9399 28.0443C85.4462 28.2787 78.6585 29.9724 72.511 32.4901C70.9845 33.1159 64.544 35.3414 65.9004 38.5676C66.7969 40.7 71.6301 37.6867 73.0914 37.1842C79.3538 35.0302 85.8018 33.6097 92.2162 32.3134C93.7693 31.9996 99.038 32.0306 99.3099 29.5371C99.643 26.4945 93.7738 28.0408 91.9399 28.0443ZM268.673 375.074C265.153 375.601 261.773 375.404 258.25 374.876C255.285 374.432 252.266 372.945 249.316 372.945C249.316 376.813 249.101 376.837 252.433 377.665C254.759 378.243 257.118 378.567 259.468 378.97C263.606 379.679 268.199 381.668 272.388 380.646C272.287 379.974 271.965 375.442 271.532 374.993C271.287 374.741 269.028 375.079 268.673 375.074ZM211.786 88.8905C212.77 89.6586 215.032 92.7214 216.205 92.7754C215.786 89.2297 212.556 83.0561 208.847 85.2471C207.938 85.7847 206.029 88.4598 206.893 89.6401C207.354 90.2711 210.58 88.8949 211.786 88.8905ZM177.469 120.434C177.505 119.816 177.542 119.198 177.579 118.581C176.218 119.561 174.533 120.024 173.566 121.603C174.727 122.234 175.887 122.865 177.049 123.496C177.189 122.475 177.329 121.455 177.469 120.434ZM284.657 214.572C291.087 217.33 296.983 221.014 301.716 227.267C305.807 232.675 307.73 242.202 308.729 249.289C311.2 266.828 306.431 283.085 303.287 299.863C301.692 308.374 299.311 316.565 297.081 324.857C295.134 332.097 293.465 339.679 290.777 346.564C288.499 352.401 285.588 358.156 283.583 364.212C282.505 367.471 280.757 378.654 276.662 375.142C275.545 378.72 275.274 378.415 276.468 380.9C277.332 382.699 280.265 385.197 281.649 386.662C285.336 390.567 290.006 393.786 294.331 396.52C302.254 401.528 310.747 405.275 318.906 409.841C322.513 411.861 326.425 414.247 325.615 420.026C324.937 424.872 322.649 428.546 319.079 430.701C315.727 432.725 310.933 434.289 307.245 434.923C305.057 435.3 304.556 434.185 302.772 433.799C300.787 433.371 298.47 434.2 296.422 434.179C287.229 434.08 279.18 431.247 271.751 424.718C269.097 422.384 265.189 416.055 261.715 416.055C259.939 416.055 260.313 417.377 258.751 418.152C256.824 419.108 253.502 417.303 251.607 416.879C247.569 415.977 243.463 415.06 240.774 410.8C237.867 406.197 238.901 400.495 240.15 395.383C241.558 389.621 243.927 383.774 244.934 377.925C245.179 376.502 245.405 373.849 245.156 372.402C244.769 370.156 242.917 368.815 242.862 366.383C242.844 365.643 243.709 364.668 243.86 363.904C244.194 362.227 244.142 360.487 244.28 358.78C244.525 355.735 245.092 352.818 245.483 349.808C246.372 342.961 248.125 336.852 249.822 330.255C251.469 323.851 253.036 319.086 256.219 313.542C257.867 310.67 263.38 300.44 260.688 297.496C257.003 306.36 252.695 313.274 247.055 320.331C242.743 325.729 238.526 332.985 233.128 336.829C227.193 341.057 219.94 343.543 213.386 345.778C210.269 346.841 207.683 349.197 204.322 349.634C200.68 350.105 196.974 349.549 193.407 348.554C192.403 348.275 189.507 346.385 188.599 346.505C187.26 346.683 185.335 349.605 183.866 350.142C180.291 351.448 177.85 348.953 175.138 346.647C172.195 344.144 171.304 343.522 167.908 343.221C163.749 342.852 159.703 341.057 155.612 339.957C148.419 338.024 142.304 334.106 135.766 330.005C128.271 325.306 121.86 318.824 116.211 311.168C107.906 299.911 96.3402 268.719 109.906 257.798C101.92 256.47 94.6055 252.198 93.6319 241.127C93.1232 235.334 94.0808 228.916 95.2702 223.332C95.813 220.782 96.4601 218.248 97.0801 215.725C97.5471 214.873 97.7945 213.941 97.82 212.927C98.1065 211.614 97.6936 210.96 96.5805 210.966C94.4771 207.953 92.8955 205.294 92.4706 201.017C92.3366 199.661 92.2168 197.583 93.0043 196.431C93.3685 195.968 93.8085 195.658 94.3216 195.502C95.5546 195.589 95.9028 194.845 95.367 193.271C95.9655 191.042 95.0776 189.305 97.3334 188.375C98.0563 188.563 98.7762 188.77 99.493 188.993C100.408 189.504 101.003 189.133 101.28 187.886C103.405 186.867 102.425 185.361 105.312 186.672C107.059 187.465 108.722 188.831 109.994 190.494C111.59 189.239 107.96 181.482 107.839 179.007C107.552 173.174 109.521 168.351 112.083 163.559C117.063 154.247 124.013 146.24 130.868 139.035C143.997 125.238 157.789 112.103 172.613 101.111C166.498 95.9089 159.353 94.4989 152.076 96.9165C145.368 99.1456 139.93 103.194 133.755 106.735C128.035 110.014 121.962 111.361 120.138 102.412C118.095 92.3884 124.615 88.6669 130.463 84.1719C129.003 82.838 124.196 83.7916 122.377 83.9495C118.327 84.3003 114.453 85.4204 110.517 86.4108C108.63 86.8851 106.896 86.7782 105.026 87.2433C102.245 87.9345 99.3425 88.7087 96.5298 89.6936C89.838 92.0375 83.1958 95.595 77.4135 100.389C72.4157 104.53 68.9484 110.377 64.9217 115.762C60.3298 121.903 55.9294 127.945 49.1217 130.192C45.9338 131.245 42.1941 132.201 39.9342 128.713C37.8314 125.47 37.714 121.562 37.7832 117.597C37.9352 108.839 41.3895 99.3754 45.4076 92.2188C49.7693 84.4502 55.6114 80.0013 61.1309 73.7485C53.1529 74.4471 45.4427 79.5976 38.1058 83.1581C36.5617 83.9077 35.0032 84.7501 33.4506 85.4431C31.7952 86.1829 30.6986 85.73 29.1125 86.0686C25.4931 86.8421 22.384 88.7105 18.8632 85.7319C12.2022 80.0972 18.8758 68.6342 23.462 65.1167C29.8499 60.218 36.3485 56.0935 43.386 52.5994C39.5761 47.5379 42.8297 40.3147 46.3416 36.724C50.7846 32.1804 56.4426 29.5768 61.7965 27.1446C66.0304 25.2209 70.1889 23.374 74.5873 22.2163C79.2113 20.9998 84.618 19.1409 89.3098 19.3192C93.7101 19.4864 97.6119 18.5369 102.068 18.385C105.776 18.2588 109.493 18.368 113.201 18.2503C123.176 17.9346 133.188 18.7587 142.938 19.6374C135.213 -8.02842 186.093 0.515332 196.948 4.12903C206.813 7.41346 218.115 11.2233 226.401 19.0163C229.912 22.317 233.246 26.0697 236.36 29.9206C240.955 35.6022 243.499 43.0429 245.93 50.3869C252.095 46.6882 257.989 42.6573 264.734 40.8231C271.153 39.0786 277.728 36.7138 284.184 35.3958C289.092 34.3933 296.217 33.7134 300.348 37.9584C304.835 42.5694 307.172 49.7449 309.851 55.8895C322.712 40.9417 337.059 30.0366 355.397 30.7618C373.342 31.4715 385.142 50.4514 387.317 71.0181C389.713 93.6811 381.471 117.362 370.299 134.911C365.289 142.782 360.105 150.383 353.362 156.255C350.018 159.166 346.491 162.355 342.824 164.627C340.996 165.76 338.997 166.784 337.077 167.656C336.211 168.049 335.319 168.444 334.418 168.711C331.846 169.476 332.345 168.455 331.389 171.213C330.613 173.453 330.708 177.306 330.375 179.763C329.996 182.572 329.77 185.42 329.216 188.191C328.255 192.994 327.254 197.679 326.051 202.369C323.772 211.245 320.706 220.192 316.951 228.289C320.136 229.983 324.596 230.154 328 230.667C331.683 231.222 335.372 232.39 339.199 233.7C346.866 236.325 353.717 238.542 361.008 242.473C368.577 246.554 375.323 252.648 382.611 257.498C389.313 261.958 396.088 267.544 402.312 272.898C403.793 274.172 404.71 275.279 405.889 276.892C407.095 278.54 407.478 278.863 408.92 280.291C409.57 280.934 411.459 284.181 412.201 284.3C413.53 284.516 413.326 283.301 414.369 281.605C416.547 278.065 419.585 275.322 421.747 271.693C423.551 268.665 425.433 265.601 427.361 262.997C432.027 256.699 435.893 249.716 439.21 242.165C440.937 238.234 442.755 234.493 444.63 230.782C446.497 227.088 449.815 222.213 453.533 222.431C453.234 220.551 452.284 220.237 453.923 219.087C454.978 218.346 457.033 219.54 457.847 220.292C460.003 222.286 460.095 226.151 459.96 229.056C459.609 236.54 458.331 243.927 456.549 251.004C454.407 259.511 451.722 267.016 448.792 275.136C446.46 281.604 443.563 290.157 437.759 293.108C441.657 299.926 439.785 305.481 437.179 312.718C435.275 318.01 432.76 323.477 428.929 326.978C424.611 330.925 419.927 327.577 415.411 324.968C412.683 323.392 404.341 319.673 406.038 314.823C403.954 314.483 402.643 312.629 400.747 312.058C398.738 311.454 399.084 312.453 396.959 312.828C395.33 313.115 392.893 311.328 391.36 310.688C388.798 309.621 386.243 308.526 383.685 307.447C376.484 304.409 369.404 301.418 362.132 298.984C348.601 294.456 334.904 291.887 321.421 287.844C318.718 287.034 316.031 286.252 313.217 285.602C312.636 285.468 309.62 285.262 309.254 284.5C308.613 283.165 310.585 275.694 310.754 274.172C311.866 264.176 311.502 253.235 309.937 243.354C309.287 239.246 306.383 233.927 306.408 229.917C306.425 227.227 308.371 224.29 309.514 221.854C312.34 215.829 315.301 209.32 317.395 203.051C320.6 193.46 322.564 182.634 323.98 172.363C324.717 167.007 325.575 161.203 325.775 155.785C325.929 151.656 325.652 147.325 326.142 143.096C324.276 143.313 321.635 144.497 319.955 143.229C317.833 141.63 317.263 137.063 317.534 134.336C310.267 135.889 310.508 127.449 310.958 120.848C297.825 120.848 314.644 96.9454 316.746 91.8127C317.711 89.4527 317.683 92.1033 317.256 88.4537C317.069 86.8495 316.174 85.0714 315.667 83.5962C314.563 80.3761 313.37 77.2051 312.095 74.0809C309.403 67.4822 306.352 61.1065 303.023 54.9587C300.026 57.5165 297.325 60.5443 294.822 63.7926C296.427 58.6501 301.333 52.2793 299.234 46.44C297.29 41.027 290.795 41.4024 286.96 42.3919C276.537 45.0833 266.542 49.0033 256.613 53.5419C259.688 55.7021 264.397 54.0334 267.453 52.3819C271.237 50.3359 275.306 48.1898 279.385 47.106C282.941 46.161 287.613 46.4836 286.585 52.3512C285.751 57.1054 281.955 61.684 279.45 65.239C273.93 73.0708 267.009 79.1338 260.211 85.1918C252.903 91.7039 245.862 98.7794 238.462 105.103C225.085 116.535 210.701 126.47 196.88 137.14C189.698 142.684 181.56 147.146 173.771 151.255C165.203 155.775 156.988 160.615 148.1 164.185C143.163 166.169 138.27 167.801 133.419 170.057C130.379 171.471 125.084 174.304 123.075 170.106C118.995 161.579 133.76 150.366 137.806 145.152C140.597 148.473 126.833 160.845 127.91 165.679C128.756 169.478 132.031 164.573 133.612 163.537C136.167 161.864 139.192 161.023 141.76 159.113C147.027 155.197 153.271 150.68 154.474 142.584C153.637 141.503 153.648 140.504 154.505 139.589C154.887 139.033 155.19 138.422 155.413 137.756C155.788 136.484 155.939 134.891 156.139 133.541C156.732 129.554 155.244 125.821 156.635 121.919C148.518 129.452 140.716 137.961 133.011 146.115C126.1 153.43 118.888 163.008 116.348 173.922C116.023 175.32 115.483 176.907 115.542 178.383C115.657 181.28 115.893 180.655 117.799 181.587C119.705 182.519 122.481 182.438 124.531 182.537C125.699 182.592 130.917 181.077 129.88 184.218C129.282 186.028 125.664 185.96 124.369 186.127C121.119 186.547 119.356 186.116 120.896 190.432C121.586 192.366 122.985 193.676 124.082 195.173C127.135 199.338 128.794 205.726 131.195 210.619C133.932 216.194 136.94 221.495 140.136 226.687C141.455 228.828 143.218 232.855 145.046 234.383C146.753 235.811 144.745 235.693 147.58 235.113C148.816 234.861 149.937 233.876 151.119 233.523C158.188 231.414 165.455 229.036 172.766 226.432C182.117 223.102 191.931 220.262 200.853 215.466C208.846 211.168 216.779 206.052 224.855 201.699C227.214 200.429 229.57 199.587 231.403 197.249C233.615 194.428 235.447 190.734 237.488 187.701C240.959 182.542 244.158 177.295 247.893 172.406C250.675 168.768 255.603 162.006 259.526 160.554C266.981 157.796 262.99 171.703 262.027 175.218C263.779 175.705 264.7 172.952 266.757 173.744C269.22 174.692 269.474 178.703 269.782 181.217C269.864 181.887 269.124 183.138 269.349 183.735C269.426 183.939 271.032 185.102 271.342 185.642C272.468 187.601 272.246 189.984 271.82 192.097C269.614 203.042 261.772 211.035 256.005 219.109C258.585 218.511 260.498 216.71 262.934 215.817C265.219 214.98 267.517 215.023 269.821 214.783C272.234 214.532 274.551 213.426 277.019 213.37C279.609 213.311 282.088 214.214 284.657 214.572Z" fill="black"/>
<path fill-rule="evenodd" clip-rule="evenodd" d="M11.9071 116.123C10.485 117.261 10.0841 118.378 10.035 121.005C10.0154 122.082 10.076 126.101 11.3052 125.949C12.4587 125.807 11.9071 117.505 11.9071 116.123ZM4.56078 122.668C5.22344 114.25 7.73794 105.691 13.6532 100.446C15.1161 99.1487 16.7709 99.1948 18.3742 98.3764C19.3377 97.8848 20.86 95.5993 21.954 95.8696C25.9807 96.8674 21.3286 103.421 20.6473 105.145C18.5361 110.486 18.6786 115.179 18.7417 120.94C18.7897 125.319 19.5326 132.701 17.7301 136.665C15.8088 140.885 11.6416 138.144 9.31543 135.647C6.37971 132.493 4.16248 127.472 4.56078 122.668Z" fill="black"/>
<path fill-rule="evenodd" clip-rule="evenodd" d="M75.2504 147.545C75.2504 152.242 78.3631 149.062 78.2522 145.721C78.0892 140.802 75.1049 143.831 75.2504 147.545ZM91.7989 121.576C88.3923 125.329 85.7642 127.435 85.1076 133.205C84.6105 137.576 85.1046 141.905 85.1256 146.308C85.1612 153.688 80.2954 161.447 75.0593 152.987C71.2398 146.817 72.6098 137.114 75.7245 130.912C77.3588 127.659 79.6919 124.44 82.3872 122.413C84.4143 120.886 90.1169 117.884 91.7989 121.576Z" fill="black"/>
<path fill-rule="evenodd" clip-rule="evenodd" d="M44.2197 235.318C43.8249 236.462 42.8974 241.136 44.7896 240.079C46.4595 239.145 45.3775 236.047 44.2197 235.318ZM34.2236 220.89C33.9317 219.132 34.0505 208.116 36.5281 208.943C38.474 209.59 38.7955 215.229 39.5881 217.192C42.5402 224.5 49.3158 229.051 51.6525 236.594C54.2605 245.017 46.3752 245.279 42.1911 241.868C37.2369 237.829 34.3706 227.939 34.2236 220.89Z" fill="black"/>
<path fill-rule="evenodd" clip-rule="evenodd" d="M28.1503 175.72C29.2253 173.942 29.3342 172.992 28.7212 171.419C27.9376 172.463 28.0766 173.955 28.1503 175.72ZM28.9284 183.674C23.3231 184.442 23.0425 171.791 24.0023 167.447C24.7668 163.988 26.4101 160.27 28.1022 157.452C28.4438 156.883 31.6843 151.771 32.3194 151.759C34.7574 151.712 34.0877 155.086 33.8243 156.341C32.9961 160.298 32.668 163.605 32.8908 167.992C33.1301 172.686 34.945 183.83 28.9284 183.674Z" fill="black"/>
<path fill-rule="evenodd" clip-rule="evenodd" d="M283.424 74.1085C275.41 82.341 267.801 91.2535 259.086 98.4544C254.822 101.979 250.364 105.096 246.108 108.678C243.941 110.502 241.73 112.135 239.326 113.475C237.202 114.66 235.813 114.814 237.575 112.003C238.753 110.124 241.393 108.816 242.998 107.481C245.467 105.424 247.799 103.144 250.397 101.319C254.976 98.1017 259.527 95.504 263.748 91.5583C267.494 88.0568 271.36 84.6382 274.935 80.9168C276.469 79.3211 281.553 71.995 283.424 74.1085Z" fill="black"/>
<path fill-rule="evenodd" clip-rule="evenodd" d="M283.586 103.835C287.191 107.611 278.173 117.956 276.116 120.301C273.947 122.774 271.559 124.98 269.2 127.17C268.37 127.942 263.841 133.104 262.691 132.688C260.422 131.865 263.401 128.515 264.175 127.642C266.68 124.814 269.238 122.069 271.687 119.164C273.896 116.546 276.288 114.122 278.424 111.42C280.154 109.231 281.607 105.522 283.586 103.835Z" fill="black"/>
<path fill-rule="evenodd" clip-rule="evenodd" d="M16.5537 256.058C15.6126 253.387 13.9272 256.352 14.7817 257.686C15.5897 258.948 16.4333 256.571 16.5537 256.058ZM11.0357 250.784C11.5402 246.856 12.7061 244.674 15.7141 248.026C17.7811 250.33 21.9383 256.88 21.5438 260.451C21.026 265.134 16.8142 263.805 14.6309 261.356C12.3929 258.846 11.4049 254.266 11.0357 250.784Z" fill="black"/>
<path fill-rule="evenodd" clip-rule="evenodd" d="M17.6274 328.078C13.9425 327.734 10.7988 324.269 9.23391 320.209C7.91726 316.794 6.67105 311.289 11.2967 313.084C14.3114 314.254 25.9331 328.628 17.6274 328.078Z" fill="black"/>
<path fill-rule="evenodd" clip-rule="evenodd" d="M62.2851 305.815C59.4373 306.609 56.6207 304.312 54.8694 301.722C53.7799 300.108 51.2441 294.453 52.5218 292.125C54.3026 288.877 56.9914 295.404 57.9189 296.696C59.3736 298.72 64.1312 302.589 62.2851 305.815Z" fill="black"/>
<path fill-rule="evenodd" clip-rule="evenodd" d="M64.85 217.5C62.6177 216.231 60.5455 214.704 59.6475 211.674C59.0767 209.744 58.5971 203.957 61.1324 203.983C64.0649 204.015 70.7798 216.921 64.85 217.5Z" fill="black"/>
<path fill-rule="evenodd" clip-rule="evenodd" d="M49.2 157.29C52.1887 157.224 52.8965 159.243 53.3119 162.143C53.5943 164.112 54.9633 170.795 53.5416 172.164C51.51 174.12 48.278 169.638 47.6248 167.878C46.2784 164.256 48.14 160.693 49.2 157.29Z" fill="black"/>
<path fill-rule="evenodd" clip-rule="evenodd" d="M100.557 357.67C102.012 358.481 105.323 360.279 104.058 363.07C102.735 365.988 98.9372 363.152 97.5186 361.876C96.9246 361.342 93.1513 357.848 93.3093 356.676C93.6419 354.185 98.8434 357.435 100.557 357.67Z" fill="black"/>
<path fill-rule="evenodd" clip-rule="evenodd" d="M4.67846 175.418C5.6729 178.468 6.7923 188.946 1.55562 183.288C-0.0424377 181.561 -0.283625 179.404 0.266971 177.033C1.06312 173.598 2.22175 174.279 4.67846 175.418Z" fill="black"/>
<path fill-rule="evenodd" clip-rule="evenodd" d="M282.189 136.398C281.03 133.496 283.892 131.625 285.422 129.755C286.421 128.533 290.621 121.908 291.998 122.282C294.831 123.052 283.582 135.104 282.189 136.398Z" fill="black"/>
<path fill-rule="evenodd" clip-rule="evenodd" d="M49.1623 346.578C51.8947 346.041 52.5323 349.758 54.2926 351.379C55.0475 352.074 57.639 352.685 57.1178 354.161C55.7483 358.035 49.0284 349.183 49.1623 346.578Z" fill="black"/>
<path fill-rule="evenodd" clip-rule="evenodd" d="M72.2356 258.783C74.1137 257.82 79.5344 262.993 77.9778 265.227C75.6512 268.57 72.368 260.612 72.2356 258.783Z" fill="black"/>
<path fill-rule="evenodd" clip-rule="evenodd" d="M111.823 333.614C110.454 333.781 104.677 331.557 106.817 328.579C108.32 326.487 112.314 331.721 111.823 333.614Z" fill="black"/>
<path fill-rule="evenodd" clip-rule="evenodd" d="M42.6391 319.324C41.2801 319.99 36.3782 318.621 37.9192 316.013C39.3875 313.531 42.6411 317.264 42.6391 319.324Z" fill="black"/>
<path fill-rule="evenodd" clip-rule="evenodd" d="M82.77 330.574C84.3591 330.371 85.5069 331.545 85.7798 333.532C83.7923 333.879 83.1793 333.3 82.77 330.574Z" fill="black"/>
<path fill-rule="evenodd" clip-rule="evenodd" d="M289.444 42.081C290.115 42.0847 290.785 42.089 291.451 42.0927C290.778 42.0884 290.112 42.0847 289.444 42.081Z" fill="black"/>
<path fill-rule="evenodd" clip-rule="evenodd" d="M278.91 213.197C277.906 213.198 276.903 213.2 275.9 213.202C276.904 213.199 277.907 213.198 278.91 213.197Z" fill="black"/>
<path fill-rule="evenodd" clip-rule="evenodd" d="M142.032 12.9026C141.986 14.1328 141.94 15.363 141.893 16.589C141.938 15.3578 141.985 14.1296 142.032 12.9026Z" fill="black"/>
<path fill-rule="evenodd" clip-rule="evenodd" d="M452.88 221.801C453.2 223.168 452.732 223.395 451.472 222.48C451.941 222.254 452.411 222.028 452.88 221.801Z" fill="black"/>
<path fill-rule="evenodd" clip-rule="evenodd" d="M424.384 329.009C424.888 329.013 425.391 329.017 425.889 329.021C425.384 329.017 424.884 329.013 424.384 329.009Z" fill="black"/>
<path fill-rule="evenodd" clip-rule="evenodd" d="M329.073 230.111C328.232 230.896 327.395 231.007 326.565 230.069C327.401 230.084 328.237 230.097 329.073 230.111Z" fill="black"/>
<path fill-rule="evenodd" clip-rule="evenodd" d="M310.294 125.339C310.273 126.364 310.251 127.389 310.229 128.411C310.25 127.384 310.272 126.361 310.294 125.339Z" fill="black"/>
<path fill-rule="evenodd" clip-rule="evenodd" d="M353.653 30.5364C352.817 30.5358 351.98 30.5346 351.145 30.5334C351.982 30.1491 352.818 30.2753 353.653 30.5364Z" fill="black"/>
<path fill-rule="evenodd" clip-rule="evenodd" d="M108.353 18.0347C107.518 18.0951 106.681 18.1554 105.845 18.2158C106.681 18.1554 107.518 18.0951 108.353 18.0347Z" fill="black"/>
<path fill-rule="evenodd" clip-rule="evenodd" d="M128.92 18.23C128.252 18.1604 127.582 18.0902 126.914 18.0206C127.582 18.0902 128.251 18.1604 128.92 18.23Z" fill="black"/>
<path fill-rule="evenodd" clip-rule="evenodd" d="M139.956 19.2032C139.288 19.5093 138.619 19.6904 137.95 19.2075C138.619 19.2063 139.288 19.2044 139.956 19.2032Z" fill="black"/>
<path fill-rule="evenodd" clip-rule="evenodd" d="M80.2618 20.8856C79.425 21.0939 78.5893 21.3021 77.7536 21.5086C78.5903 21.3021 79.426 21.0939 80.2618 20.8856Z" fill="black"/>
<path fill-rule="evenodd" clip-rule="evenodd" d="M310.798 270.953C310.775 271.569 310.752 272.184 310.729 272.797C310.753 272.18 310.775 271.567 310.798 270.953Z" fill="black"/>
<path fill-rule="evenodd" clip-rule="evenodd" d="M34.348 221.186C34.358 221.597 34.3675 222.007 34.3765 222.415C34.3655 222.004 34.3575 221.595 34.348 221.186Z" fill="black"/>
<path fill-rule="evenodd" clip-rule="evenodd" d="M455.987 218.982L453.479 218.998C454.313 218.235 455.149 218.332 455.987 218.982Z" fill="black"/>
<path fill-rule="evenodd" clip-rule="evenodd" d="M284.428 214.632C283.758 214.496 283.089 214.361 282.421 214.225C283.089 214.361 283.759 214.496 284.428 214.632Z" fill="black"/>
<path fill-rule="evenodd" clip-rule="evenodd" d="M100.829 357.577C99.9926 357.378 99.1569 357.177 98.3207 356.978L100.829 357.577Z" fill="black"/>
<path fill-rule="evenodd" clip-rule="evenodd" d="M269.652 181.25C269.637 180.635 269.621 180.02 269.606 179.407C269.621 180.022 269.637 180.636 269.652 181.25Z" fill="black"/>
<path fill-rule="evenodd" clip-rule="evenodd" d="M110.862 18.239C110.36 18.1632 109.858 18.0874 109.357 18.0117C109.858 18.0874 110.36 18.1632 110.862 18.239Z" fill="black"/>
<path fill-rule="evenodd" clip-rule="evenodd" d="M193.13 3.04412C192.628 2.85795 192.126 2.67179 191.625 2.48563C192.127 2.67179 192.628 2.85795 193.13 3.04412Z" fill="black"/>
<path fill-rule="evenodd" clip-rule="evenodd" d="M252.825 417.452C253.16 417.477 253.496 417.503 253.828 417.527C253.491 417.502 253.157 417.477 252.825 417.452Z" fill="black"/>
<path fill-rule="evenodd" clip-rule="evenodd" d="M22.5736 87.5284C23.0773 87.5446 23.5809 87.5614 24.0785 87.5782C23.5724 87.5614 23.073 87.5446 22.5736 87.5284Z" fill="black"/>
<path fill-rule="evenodd" clip-rule="evenodd" d="M359.171 31.1362C358.335 31.0642 357.499 30.9921 356.663 30.9194C357.5 30.9921 358.335 31.0642 359.171 31.1362Z" fill="black"/>
<path fill-rule="evenodd" clip-rule="evenodd" d="M94.8092 28.259C93.6359 28.2615 92.4641 28.264 91.2978 28.2664C92.4736 28.264 93.6414 28.2615 94.8092 28.259Z" fill="black"/>
<path fill-rule="evenodd" clip-rule="evenodd" d="M331.808 154.831C331.823 155.856 331.84 156.881 331.856 157.903C331.841 156.876 331.826 155.853 331.808 154.831Z" fill="black"/>
<path fill-rule="evenodd" clip-rule="evenodd" d="M270.382 374.808C269.711 374.796 269.041 374.782 268.375 374.768C269.047 374.78 269.715 374.794 270.382 374.808Z" fill="black"/>
<path fill-rule="evenodd" clip-rule="evenodd" d="M341.614 49.2718C342.617 49.1354 343.62 48.999 344.624 48.8626C343.661 49.9058 342.621 49.2115 341.614 49.2718Z" fill="black"/>
<path fill-rule="evenodd" clip-rule="evenodd" d="M264.864 375.129C264.361 375.106 263.858 375.083 263.359 375.061C263.864 375.084 264.364 375.106 264.864 375.129Z" fill="black"/>
<path fill-rule="evenodd" clip-rule="evenodd" d="M247.519 385.847C247.545 386.874 247.57 387.898 247.596 388.919C247.571 387.892 247.545 386.87 247.519 385.847Z" fill="black"/>
<path fill-rule="evenodd" clip-rule="evenodd" d="M324.057 86.9993C324.726 86.923 325.395 86.8466 326.063 86.7709C325.453 87.3486 324.736 87.0104 324.057 86.9993Z" fill="black"/>
<path fill-rule="evenodd" clip-rule="evenodd" d="M104.842 250.452C105.511 250.604 106.18 250.754 106.848 250.903C106.18 250.754 105.511 250.604 104.842 250.452Z" fill="black"/>
<path fill-rule="evenodd" clip-rule="evenodd" d="M209.182 88.7843C210.017 87.913 210.853 88.0077 211.69 88.7744C210.854 88.7769 210.018 88.7806 209.182 88.7843Z" fill="black"/>
<path fill-rule="evenodd" clip-rule="evenodd" d="M177.793 119.809C177.818 119.4 177.841 118.99 177.867 118.581C177.844 118.991 177.819 119.4 177.793 119.809Z" fill="black"/>
<path fill-rule="evenodd" clip-rule="evenodd" d="M323.796 108.136C323.802 108.956 323.809 109.777 323.816 110.593C323.81 109.771 323.803 108.953 323.796 108.136Z" fill="black"/>
<path fill-rule="evenodd" clip-rule="evenodd" d="M102.476 236.566C103.577 237.023 105.791 238.403 107.073 238.22C108.1 238.073 108.946 236.545 109.937 236.547C112.603 236.551 112.108 240.326 110.82 242.352C107.336 247.834 99.5512 241.89 102.476 236.566Z" fill="black"/>
<path fill-rule="evenodd" clip-rule="evenodd" d="M113.358 216.886C116.994 218.035 115.183 227.831 112.127 228.504C108.528 229.298 107.901 221.333 108.612 218.454C110.464 219.802 109.317 224.61 111.651 223.281C113.135 222.435 112.91 218.524 113.358 216.886Z" fill="black"/>
</svg>
